<?xml version="1.0" encoding="UTF-8"?> <!-- Generator: Adobe Illustrator 23.0.3, SVG Export Plug-In . SVG Version: 6.00 Build 0) --> <svg xmlns="http://www.w3.org/2000/svg" xmlns:xlink="http://www.w3.org/1999/xlink" id="Layer_1" x="0px" y="0px" viewBox="0 0 500 500" style="enable-background:new 0 0 500 500;" xml:space="preserve"> <g> <path d="M77.91,241.31h11.07v63.82H77.91v-8.92c-3.69,4.77-10.61,10.77-21.84,10.77C39.92,306.98,25,295.6,25,273.15 c0-21.99,14.76-33.37,31.07-33.37c12.3,0,18.92,6.77,21.84,10.61V241.31z M36.38,273.15c0,13.69,7.69,23.99,20.92,23.99 c13.53,0,21.22-11.23,21.22-23.84c0-16.46-11.38-23.68-21.22-23.68C46.38,249.62,36.38,257.61,36.38,273.15z"></path> <path d="M110.2,278.53c0,4.46,0,9.69,3.08,13.69c1.69,2.15,5.08,4.92,11.23,4.92c6.15,0,9.54-2.77,11.23-4.92 c3.08-4,3.08-9.23,3.08-13.69v-37.22h11.07v38.45c0,7.84-0.77,13.69-5.84,19.22c-5.69,6-13.23,8-19.53,8c-6.31,0-13.84-2-19.53-8 c-5.08-5.54-5.84-11.38-5.84-19.22v-38.45h11.07V278.53z"></path> <path d="M208.94,193.02h11.07v112.12h-11.07v-8.92c-3.69,4.77-10.61,10.77-21.84,10.77c-16.15,0-31.07-11.38-31.07-33.83 c0-21.99,14.76-33.37,31.07-33.37c12.3,0,18.92,6.77,21.84,10.61V193.02z M167.41,273.15c0,13.69,7.69,23.99,20.92,23.99 c13.53,0,21.22-11.23,21.22-23.84c0-16.46-11.38-23.68-21.22-23.68C177.41,249.62,167.41,257.61,167.41,273.15z"></path> <path d="M234.16,209.32c4.31,0,7.84,3.54,7.84,7.84c0,4.31-3.54,7.84-7.84,7.84c-4.31,0-7.84-3.54-7.84-7.84 C226.32,212.86,229.85,209.32,234.16,209.32z M239.7,241.31v63.82h-11.07v-63.82H239.7z"></path> <path d="M245.85,273.45c0-19.38,14.3-33.68,33.84-33.68c19.53,0,33.83,14.3,33.83,33.68c0,19.38-14.46,33.53-33.83,33.53 C260.3,306.98,245.85,292.83,245.85,273.45z M257.23,273.45c0,15.69,11.07,23.68,22.45,23.68c11.53,0,22.45-8.15,22.45-23.68 c0-15.69-10.77-23.84-22.45-23.84C267.99,249.62,257.23,257.92,257.23,273.45z"></path> <path d="M330.74,193.02v112.12h-11.07V193.02H330.74z"></path> <path d="M389.8,241.31h11.07v63.82H389.8v-8.92c-3.69,4.77-10.61,10.77-21.84,10.77c-16.15,0-31.07-11.38-31.07-33.83 c0-21.99,14.76-33.37,31.07-33.37c12.3,0,18.92,6.77,21.84,10.61V241.31z M348.27,273.15c0,13.69,7.69,23.99,20.92,23.99 c13.53,0,21.22-11.23,21.22-23.84c0-16.46-11.38-23.68-21.22-23.68C358.27,249.62,348.27,257.61,348.27,273.15z"></path> <path d="M422.09,305.14h-11.07V193.02h11.07v57.21c7.54-9.38,17.23-10.46,21.84-10.46c19.99,0,31.07,16.61,31.07,33.84 c0,17.53-11.23,33.37-30.61,33.37c-10.3,0-17.53-4.61-22.3-10.77V305.14z M463.62,273.61c0-15.69-10.61-23.99-20.92-23.99 c-10.3,0-21.22,8.46-21.22,23.84c0,13.07,8.3,23.68,21.38,23.68C455.78,297.14,463.62,286.37,463.62,273.61z"></path> </g> </svg> 