<?xml version="1.0" encoding="utf-8"?>
<!-- Generator: Adobe Illustrator 18.0.0, SVG Export Plug-In . SVG Version: 6.00 Build 0)  -->
<!DOCTYPE svg PUBLIC "-//W3C//DTD SVG 1.1//EN" "http://www.w3.org/Graphics/SVG/1.1/DTD/svg11.dtd" [
	<!ENTITY ns_flows "http://ns.adobe.com/Flows/1.0/">
	<!ENTITY ns_extend "http://ns.adobe.com/Extensibility/1.0/">
	<!ENTITY ns_ai "http://ns.adobe.com/AdobeIllustrator/10.0/">
	<!ENTITY ns_graphs "http://ns.adobe.com/Graphs/1.0/">
]>
<svg version="1.1" id="Layer_1" xmlns:x="&ns_extend;" xmlns:i="&ns_ai;" xmlns:graph="&ns_graphs;"
	 xmlns="http://www.w3.org/2000/svg" xmlns:xlink="http://www.w3.org/1999/xlink" xmlns:a="http://ns.adobe.com/AdobeSVGViewerExtensions/3.0/"
	 x="0px" y="0px" viewBox="0 0 300 300" enable-background="new 0 0 300 300" xml:space="preserve">
<g>
	<g>
		<path fill="#248ACB" d="M228.4,172.1c-5.3,0-10.6-0.2-15.9,0.1c-5.2,0.3-10.7-5.2-10.4-10.5c0.3-5.3,0.1-10.6,0-15.9
			c-0.1-5.6,5.2-10.3,10.4-10.3c10.6,0,21.1,0,31.7,0c4.9,0,9.4,3.6,10.5,8.4c1.2,5.3-1.1,11.3-6.8,13.3c-1.6,0.5-3.4,0.8-5,0.8
			c-9.8,0.1-19.6,0-29.4,0c-1.7,0-2.5-0.8-2.5-2.5c0-1.8,0.8-2.6,2.6-2.6c10,0,20,0,30,0c2.7,0,4.7-1.1,5.9-3.6
			c1.7-3.5-0.5-8.6-4.7-8.7c-6.8-0.2-13.6-0.2-20.3-0.3c-3.2,0-6.4,0-9.6,0c-1.1,0-2.3,0.1-3.4,0.4c-2.3,0.6-4.4,3.3-4.4,5.7
			c0,5.1,0,10.1,0,15.2c0,2.9,3,5.8,5.9,5.8c10.4,0,20.8,0,31.2,0c3.1,0,5.5-2.3,5.8-5.5c0.1-1.2,0.2-2.5,1.7-2.8
			c1.1-0.2,2.2-0.3,2.9,0.8c0.2,0.4,0.4,0.8,0.5,1.2c0.3,6-4.3,11.2-10.6,11.1C239,172.1,233.7,172.1,228.4,172.1z"/>
		<path fill="#248ACB" d="M51.3,172.1c-5.6,0-11.1,0-16.7,0c-4.7,0-9.6-4.9-9.6-9.7c0-2.3-0.2-4.6,1.2-6.7c2.1-3.3,4.8-5.7,8.8-5.8
			c10.4-0.2,20.8-0.2,31.1-0.3c1.8,0,3,0.9,3.1,2.4c0.1,1.1-0.5,2-1.6,2.4c-0.5,0.2-1,0.2-1.6,0.2c-9.9,0-19.8,0-29.7,0
			c-3.2,0-6.1,2.5-6.6,5.5c-0.5,2.9,1.7,6.2,4.8,6.9c0.5,0.1,1.1,0.2,1.6,0.2c10.1,0,20.1,0,30.2,0c3.1,0,6.4-2.3,6.4-5.7
			c0-4.7,0.3-9.5,0.2-14.2c0-3.6-1.7-5.9-4.5-6.6c-1.1-0.3-2.2-0.5-3.3-0.5c-9.2,0-18.4-0.1-27.6,0c-1.8,0-3.6,0.1-5.2,1.4
			c-1.5,1.3-2.4,2.8-2.6,4.7c-0.1,1.7-1,2.7-2.5,2.6c-1.4-0.1-2.2-1-2.3-2.7c-0.5-5.7,5.4-11,10.8-10.9c10.4,0.2,20.8,0.1,31.2,0
			c4.5,0,9.5,3.5,10.5,8.2c0.2,1,0.3,2,0.3,2.9c0,4.9,0,9.7,0,14.6c0,5.7-3.3,9.5-8.6,10.9c-0.4,0.1-0.9,0.1-1.3,0.1
			C62.4,172.1,56.9,172.1,51.3,172.1z"/>
		<path fill="#248ACB" d="M166.7,135.5c5.2,0,10.4,0.1,15.6,0c3.9-0.1,9.4,3.3,10.4,8.2c0.2,1,0.3,2,0.3,2.9c0,4.7,0,9.4,0,14.1
			c0.1,5.9-3,9.8-8.5,11.2c-1.1,0.3-2.4,0.3-3.6,0.1c-1.6-0.2-1.6-1.5-1.5-2.8c0.1-1.3,1-1.8,2.1-1.9c4.9-0.3,6.4-3.4,6.6-7.4
			c0.2-4,0.1-8,0-12c-0.1-2.4-0.5-5-2.8-6.3c-1.4-0.8-3.1-1.3-4.7-1.3c-9.4-0.1-18.8-0.2-28.2,0c-4,0.1-6,0.8-7.3,5
			c-0.1,0.5-0.2,1-0.2,1.4c0,4.8,0.1,9.5,0,14.2c-0.1,3.1,2.9,6.3,6.2,6.3c1.7,0,2.6,0.9,2.5,2.6c0,1.4-1,2.1-2.5,2.2
			c-5.1,0.5-9.6-3.5-10.9-8.2c-0.1-0.5-0.1-1-0.1-1.5c0-5.6,0-11.1,0-16.7c0-4.3,3.2-8.8,7.9-10c0.9-0.2,1.9-0.3,2.9-0.3
			C156.3,135.5,161.5,135.5,166.7,135.5z"/>
		<path fill="#248ACB" d="M108.9,172.1c-5.4,0-10.8-0.2-16.2,0c-5.1,0.2-10.2-5.4-10.1-10c0.2-5.5,0-11.1,0.1-16.7
			c0.1-6,5.7-10.6,11.7-9.9c1.3,0.1,1.5,1.4,1.5,2.4c0,1-0.2,2.1-1.5,2.4c-1.2,0.3-2.5,0.4-3.7,0.9c-2.3,1-3.3,2.9-3.3,5.3
			c-0.1,4.9,0,9.9,0,14.9c0,3.1,2.9,5.9,6,5.9c10.3,0,20.6,0,30.9,0c3.1,0,5.8-2.5,6-5.5c0.2-4.8,0.4-9.6,0.3-14.3
			c-0.1-3.6-1.5-5.6-4.5-6.7c-0.8-0.3-1.7-0.3-2.6-0.5c-1.3-0.3-1.7-1.2-1.6-2.9c0.1-1.2,0.9-1.8,2.1-1.8c6-0.4,11.5,4.8,11.4,10.8
			c0,5,0,10,0,15c0.1,5.8-5,11-10.8,10.8C119.4,171.9,114.1,172.1,108.9,172.1z"/>
	</g>
	<path d="M267,143.1c-3.8,0-7-3.2-7-7.2s3-7.2,7-7.2s7.2,3.2,7.2,7.2S271,143.1,267,143.1z M267,143.9c4.5,0,8-3.5,8-8.1
		c0-4.5-3.7-8-8-8c-4.5,0-7.8,3.7-7.8,8.1C259.2,140.3,262.7,143.9,267,143.9z M263.4,131.3h0.5c0.3,0,0.6,0.2,0.6,0.5v7.2
		c0,0.5-0.2,0.6-0.6,0.6h-0.5v0.5h3.7v-0.5h-0.8c-0.5,0-0.3-1-0.3-1.3v-2.6h0.3c1.6,0,1.8,0.8,2.4,2.2c0.2,0.5,0.6,1.4,1,1.8
		c0.5,0.3,1,0.3,1.6,0.3h0.6v-0.5c-0.3,0-0.6,0-0.8-0.3c-0.3-0.3-0.6-1.1-0.8-1.4c-0.3-0.8-1-2.1-1.9-2.4c1.3-0.2,2.6-1.1,2.6-2.6
		c0-0.8-0.3-1.4-1-1.9c-0.8-0.5-1.9-0.5-2.7-0.5h-3.8L263.4,131.3L263.4,131.3z M265.9,135.3v-3c0-1,0.2-1,1.1-1c0.5,0,1,0,1.4,0.3
		c0.5,0.3,0.8,1,0.8,1.6c0,1.9-1.4,2.1-2.9,2.1H265.9z"/>
</g>
</svg>
