<?xml version="1.0" encoding="utf-8"?>
<!-- Generator: Adobe Illustrator 18.0.0, SVG Export Plug-In . SVG Version: 6.00 Build 0)  -->
<!DOCTYPE svg PUBLIC "-//W3C//DTD SVG 1.1//EN" "http://www.w3.org/Graphics/SVG/1.1/DTD/svg11.dtd" [
	<!ENTITY ns_flows "http://ns.adobe.com/Flows/1.0/">
	<!ENTITY ns_extend "http://ns.adobe.com/Extensibility/1.0/">
	<!ENTITY ns_ai "http://ns.adobe.com/AdobeIllustrator/10.0/">
	<!ENTITY ns_graphs "http://ns.adobe.com/Graphs/1.0/">
]>
<svg version="1.1" id="Layer_1" xmlns:x="&ns_extend;" xmlns:i="&ns_ai;" xmlns:graph="&ns_graphs;"
	 xmlns="http://www.w3.org/2000/svg" xmlns:xlink="http://www.w3.org/1999/xlink" xmlns:a="http://ns.adobe.com/AdobeSVGViewerExtensions/3.0/"
	 x="0px" y="0px" viewBox="0 0 300 300" enable-background="new 0 0 300 300" xml:space="preserve">
<path fill="#FF7800" d="M30,182.2c0.3,0,0.6,0,0.9-0.1c0.3-0.1,0.6-0.2,0.8-0.4c0.2-0.2,0.4-0.3,0.5-0.6c0.1-0.2,0.2-0.5,0.2-0.8
	c0-0.3-0.1-0.5-0.2-0.7c-0.1-0.2-0.3-0.4-0.5-0.5c-0.2-0.2-0.5-0.3-0.8-0.3c-0.3-0.1-0.6-0.1-0.9-0.1h-2.7v3.5H30z M34.2,186.6H33
	l-3-3.7h-2.5v3.7h-1V178h3.6c0.5,0,0.9,0.1,1.4,0.2c0.4,0.1,0.8,0.3,1.1,0.5c0.3,0.2,0.6,0.5,0.8,0.8c0.2,0.3,0.3,0.6,0.3,1
	c0,0.3-0.1,0.6-0.2,0.8c-0.1,0.3-0.3,0.5-0.5,0.7c-0.2,0.2-0.5,0.4-0.8,0.5c-0.3,0.1-0.7,0.3-1,0.3L34.2,186.6z"/>
<polygon fill="#FF7800" points="45.1,186.6 38.3,186.6 38.3,178 45,178 45,178.7 39.3,178.7 39.3,181.8 44.7,181.8 44.7,182.5 
	39.3,182.5 39.3,185.9 45.1,185.9 "/>
<polygon fill="#FF7800" points="55.8,178.7 50.3,178.7 50.3,181.9 55.5,181.9 55.5,182.6 50.3,182.6 50.3,186.6 49.3,186.6 
	49.3,178 55.8,178 "/>
<polygon fill="#FF7800" points="66.8,186.6 59.9,186.6 59.9,178 66.7,178 66.7,178.7 61,178.7 61,181.8 66.4,181.8 66.4,182.5 
	61,182.5 61,185.9 66.8,185.9 "/>
<path fill="#FF7800" d="M74.6,182.2c0.3,0,0.6,0,0.9-0.1c0.3-0.1,0.6-0.2,0.8-0.4c0.2-0.2,0.4-0.3,0.5-0.6c0.1-0.2,0.2-0.5,0.2-0.8
	c0-0.3-0.1-0.5-0.2-0.7c-0.1-0.2-0.3-0.4-0.5-0.5c-0.2-0.2-0.5-0.3-0.8-0.3c-0.3-0.1-0.6-0.1-0.9-0.1H72v3.5H74.6z M78.8,186.6h-1.2
	l-3-3.7H72v3.7h-1V178h3.6c0.5,0,0.9,0.1,1.4,0.2c0.4,0.1,0.8,0.3,1.1,0.5c0.3,0.2,0.6,0.5,0.8,0.8c0.2,0.3,0.3,0.6,0.3,1
	c0,0.3-0.1,0.6-0.2,0.8c-0.1,0.3-0.3,0.5-0.5,0.7c-0.2,0.2-0.5,0.4-0.8,0.5c-0.3,0.1-0.7,0.3-1,0.3L78.8,186.6z"/>
<polygon fill="#FF7800" points="89.7,186.6 82.8,186.6 82.8,178 89.5,178 89.5,178.7 83.8,178.7 83.8,181.8 89.2,181.8 89.2,182.5 
	83.8,182.5 83.8,185.9 89.7,185.9 "/>
<polygon fill="#FF7800" points="101.5,186.6 100.3,186.6 94.9,179.2 94.9,186.6 93.9,186.6 93.9,178 95.1,178 100.5,185.4 
	100.5,178 101.5,178 "/>
<path fill="#FF7800" d="M114.4,185.9c-0.4,0.3-0.9,0.5-1.5,0.6c-0.6,0.2-1.2,0.2-1.9,0.2c-0.8,0-1.5-0.1-2.1-0.3
	c-0.6-0.2-1.2-0.5-1.6-0.9c-0.4-0.4-0.8-0.9-1-1.4c-0.2-0.5-0.4-1.1-0.4-1.7c0-0.7,0.1-1.2,0.4-1.8c0.2-0.5,0.6-1,1-1.4
	c0.5-0.4,1-0.7,1.6-0.9c0.6-0.2,1.3-0.3,2.1-0.3c0.6,0,1.3,0,1.8,0.2c0.6,0.1,1.1,0.3,1.5,0.5l-0.5,0.6c-0.3-0.1-0.7-0.3-1.2-0.4
	c-0.5-0.1-1-0.2-1.6-0.2c-0.6,0-1.2,0.1-1.7,0.3c-0.5,0.2-0.9,0.5-1.2,0.8c-0.3,0.3-0.6,0.7-0.8,1.2c-0.2,0.4-0.3,0.9-0.3,1.4
	c0,0.5,0.1,1,0.3,1.4c0.2,0.5,0.5,0.8,0.8,1.2c0.4,0.3,0.8,0.6,1.3,0.8c0.5,0.2,1.1,0.3,1.7,0.3c0.5,0,1-0.1,1.6-0.2
	c0.5-0.1,0.9-0.3,1.3-0.6L114.4,185.9z"/>
<polygon fill="#FF7800" points="125.5,186.6 118.6,186.6 118.6,178 125.3,178 125.3,178.7 119.6,178.7 119.6,181.8 125,181.8 
	125,182.5 119.6,182.5 119.6,185.9 125.5,185.9 "/>
<polygon fill="#FF7800" points="146.6,186.6 145.6,186.6 145.6,179.4 142.2,184.3 141.2,184.3 137.9,179.4 137.9,186.6 136.9,186.6 
	136.9,178 138,178 141.7,183.6 145.5,178 146.6,178 "/>
<path fill="#FF7800" d="M159.2,178v5.8c0,0.5-0.1,0.9-0.3,1.2c-0.2,0.4-0.5,0.7-0.8,0.9c-0.3,0.2-0.8,0.4-1.2,0.6
	c-0.5,0.1-1,0.2-1.5,0.2c-0.6,0-1.1-0.1-1.6-0.2c-0.5-0.1-0.9-0.3-1.2-0.6c-0.3-0.2-0.6-0.5-0.8-0.9c-0.2-0.4-0.3-0.8-0.3-1.2V178h1
	v5.8c0,0.4,0.1,0.7,0.2,1c0.1,0.3,0.3,0.5,0.6,0.7c0.3,0.2,0.6,0.3,0.9,0.4c0.4,0.1,0.8,0.2,1.2,0.2c0.9,0,1.6-0.2,2.1-0.6
	c0.5-0.4,0.8-0.9,0.8-1.7V178H159.2z"/>
<path fill="#FF7800" d="M169.2,179.2c-0.1-0.1-0.3-0.1-0.5-0.2c-0.2-0.1-0.4-0.1-0.6-0.2c-0.2-0.1-0.4-0.1-0.6-0.2
	c-0.2,0-0.4-0.1-0.6-0.1c-0.8,0-1.3,0.1-1.7,0.4c-0.4,0.3-0.6,0.6-0.6,1.1c0,0.2,0.1,0.4,0.2,0.6c0.1,0.2,0.3,0.3,0.5,0.5
	c0.2,0.1,0.5,0.3,0.9,0.4c0.3,0.1,0.8,0.3,1.2,0.5c0.4,0.2,0.8,0.3,1.2,0.5c0.4,0.2,0.7,0.3,0.9,0.5c0.3,0.2,0.5,0.4,0.6,0.6
	c0.1,0.2,0.2,0.5,0.2,0.8c0,0.4-0.1,0.8-0.3,1.1c-0.2,0.3-0.5,0.5-0.8,0.7c-0.3,0.2-0.7,0.3-1.1,0.4c-0.4,0.1-0.8,0.1-1.2,0.1
	c-0.6,0-1.3-0.1-1.9-0.3c-0.6-0.2-1.2-0.5-1.7-0.9l0.6-0.6c0.2,0.1,0.4,0.2,0.6,0.4c0.2,0.1,0.5,0.2,0.7,0.3
	c0.3,0.1,0.5,0.2,0.8,0.2c0.3,0.1,0.5,0.1,0.8,0.1c0.3,0,0.6,0,0.9-0.1c0.3,0,0.6-0.1,0.8-0.2c0.2-0.1,0.4-0.3,0.6-0.5
	c0.1-0.2,0.2-0.5,0.2-0.8c0-0.2-0.1-0.4-0.2-0.5c-0.1-0.2-0.3-0.3-0.5-0.5c-0.2-0.1-0.4-0.3-0.7-0.4c-0.3-0.1-0.6-0.3-0.9-0.4
	c-0.4-0.1-0.8-0.3-1.2-0.5c-0.4-0.2-0.8-0.3-1.1-0.5c-0.3-0.2-0.6-0.4-0.8-0.7c-0.2-0.3-0.3-0.6-0.3-0.9c0-0.4,0.1-0.8,0.3-1
	c0.2-0.3,0.4-0.5,0.7-0.7c0.3-0.2,0.6-0.3,1-0.4c0.4-0.1,0.8-0.1,1.1-0.1c0.6,0,1.2,0.1,1.7,0.2c0.5,0.1,0.9,0.3,1.3,0.5
	L169.2,179.2z"/>
<rect x="174.7" y="178" fill="#FF7800" width="1" height="8.6"/>
<path fill="#FF7800" d="M188.6,185.9c-0.4,0.3-0.9,0.5-1.5,0.6c-0.6,0.2-1.2,0.2-1.9,0.2c-0.8,0-1.5-0.1-2.1-0.3
	c-0.6-0.2-1.2-0.5-1.6-0.9c-0.4-0.4-0.8-0.9-1-1.4c-0.2-0.5-0.4-1.1-0.4-1.7c0-0.7,0.1-1.2,0.4-1.8c0.2-0.5,0.6-1,1.1-1.4
	c0.5-0.4,1-0.7,1.6-0.9c0.6-0.2,1.3-0.3,2.1-0.3c0.6,0,1.3,0,1.8,0.2c0.6,0.1,1.1,0.3,1.5,0.5l-0.5,0.6c-0.3-0.1-0.7-0.3-1.2-0.4
	c-0.5-0.1-1-0.2-1.6-0.2c-0.6,0-1.2,0.1-1.7,0.3c-0.5,0.2-0.9,0.5-1.2,0.8c-0.3,0.3-0.6,0.7-0.8,1.2c-0.2,0.4-0.3,0.9-0.3,1.4
	c0,0.5,0.1,1,0.3,1.4c0.2,0.5,0.5,0.8,0.8,1.2c0.3,0.3,0.8,0.6,1.3,0.8c0.5,0.2,1.1,0.3,1.7,0.3c0.5,0,1-0.1,1.6-0.2
	c0.5-0.1,0.9-0.3,1.3-0.6L188.6,185.9z"/>
<path fill="#FF7800" d="M205.7,179.2c-0.1-0.1-0.3-0.1-0.5-0.2c-0.2-0.1-0.4-0.1-0.6-0.2c-0.2-0.1-0.4-0.1-0.6-0.2
	c-0.2,0-0.4-0.1-0.6-0.1c-0.8,0-1.3,0.1-1.7,0.4c-0.4,0.3-0.6,0.6-0.6,1.1c0,0.2,0.1,0.4,0.2,0.6c0.1,0.2,0.3,0.3,0.5,0.5
	c0.2,0.1,0.5,0.3,0.9,0.4c0.3,0.1,0.8,0.3,1.2,0.5c0.4,0.2,0.8,0.3,1.2,0.5c0.4,0.2,0.7,0.3,0.9,0.5c0.3,0.2,0.5,0.4,0.6,0.6
	c0.1,0.2,0.2,0.5,0.2,0.8c0,0.4-0.1,0.8-0.3,1.1c-0.2,0.3-0.5,0.5-0.8,0.7c-0.3,0.2-0.7,0.3-1.1,0.4c-0.4,0.1-0.8,0.1-1.2,0.1
	c-0.6,0-1.3-0.1-1.9-0.3c-0.6-0.2-1.2-0.5-1.7-0.9l0.6-0.6c0.2,0.1,0.4,0.2,0.6,0.4c0.2,0.1,0.5,0.2,0.7,0.3
	c0.3,0.1,0.5,0.2,0.8,0.2c0.3,0.1,0.5,0.1,0.8,0.1c0.3,0,0.6,0,0.9-0.1c0.3,0,0.6-0.1,0.8-0.2c0.2-0.1,0.4-0.3,0.6-0.5
	c0.2-0.2,0.2-0.5,0.2-0.8c0-0.2-0.1-0.4-0.2-0.5c-0.1-0.2-0.3-0.3-0.5-0.5c-0.2-0.1-0.4-0.3-0.7-0.4c-0.3-0.1-0.6-0.3-0.9-0.4
	c-0.4-0.1-0.8-0.3-1.2-0.5c-0.4-0.2-0.8-0.3-1.1-0.5c-0.3-0.2-0.6-0.4-0.8-0.7c-0.2-0.3-0.3-0.6-0.3-0.9c0-0.4,0.1-0.8,0.3-1
	c0.2-0.3,0.4-0.5,0.8-0.7c0.3-0.2,0.6-0.3,1-0.4c0.4-0.1,0.8-0.1,1.1-0.1c0.6,0,1.2,0.1,1.7,0.2c0.5,0.1,0.9,0.3,1.3,0.5
	L205.7,179.2z"/>
<polygon fill="#FF7800" points="218.2,178 214.6,183.2 214.6,186.6 213.6,186.6 213.6,183.2 210.1,178 211.2,178 214.1,182.4 
	217,178 "/>
<path fill="#FF7800" d="M227.3,179.2c-0.1-0.1-0.3-0.1-0.5-0.2c-0.2-0.1-0.4-0.1-0.6-0.2c-0.2-0.1-0.4-0.1-0.6-0.2
	c-0.2,0-0.4-0.1-0.6-0.1c-0.8,0-1.3,0.1-1.7,0.4c-0.4,0.3-0.6,0.6-0.6,1.1c0,0.2,0.1,0.4,0.2,0.6c0.1,0.2,0.3,0.3,0.5,0.5
	c0.2,0.1,0.5,0.3,0.9,0.4c0.3,0.1,0.8,0.3,1.2,0.5c0.4,0.2,0.8,0.3,1.2,0.5c0.4,0.2,0.7,0.3,0.9,0.5c0.3,0.2,0.5,0.4,0.6,0.6
	c0.1,0.2,0.2,0.5,0.2,0.8c0,0.4-0.1,0.8-0.3,1.1c-0.2,0.3-0.5,0.5-0.8,0.7c-0.3,0.2-0.7,0.3-1.1,0.4c-0.4,0.1-0.8,0.1-1.2,0.1
	c-0.6,0-1.3-0.1-1.9-0.3c-0.6-0.2-1.2-0.5-1.7-0.9l0.6-0.6c0.2,0.1,0.4,0.2,0.6,0.4c0.2,0.1,0.5,0.2,0.7,0.3
	c0.3,0.1,0.5,0.2,0.8,0.2c0.3,0.1,0.5,0.1,0.8,0.1c0.3,0,0.6,0,0.9-0.1c0.3,0,0.6-0.1,0.8-0.2c0.2-0.1,0.4-0.3,0.6-0.5
	c0.1-0.2,0.2-0.5,0.2-0.8c0-0.2-0.1-0.4-0.2-0.5c-0.1-0.2-0.3-0.3-0.5-0.5c-0.2-0.1-0.4-0.3-0.7-0.4c-0.3-0.1-0.6-0.3-0.9-0.4
	c-0.4-0.1-0.8-0.3-1.2-0.5c-0.4-0.2-0.8-0.3-1.1-0.5c-0.3-0.2-0.6-0.4-0.8-0.7c-0.2-0.3-0.3-0.6-0.3-0.9c0-0.4,0.1-0.8,0.3-1
	c0.2-0.3,0.4-0.5,0.7-0.7c0.3-0.2,0.6-0.3,1-0.4c0.4-0.1,0.8-0.1,1.1-0.1c0.6,0,1.2,0.1,1.7,0.2c0.5,0.1,0.9,0.3,1.3,0.5
	L227.3,179.2z"/>
<polygon fill="#FF7800" points="239.2,178.7 235.8,178.7 235.8,186.6 234.8,186.6 234.8,178.7 231.4,178.7 231.4,178 239.2,178 "/>
<polygon fill="#FF7800" points="249.9,186.6 243.1,186.6 243.1,178 249.8,178 249.8,178.7 244.1,178.7 244.1,181.8 249.5,181.8 
	249.5,182.5 244.1,182.5 244.1,185.9 249.9,185.9 "/>
<polygon fill="#FF7800" points="263.8,186.6 262.8,186.6 262.8,179.4 259.5,184.3 258.5,184.3 255.2,179.4 255.2,186.6 254.1,186.6 
	254.1,178 255.2,178 259,183.6 262.7,178 263.8,178 "/>
<path fill="#FF7800" d="M274,179.2c-0.1-0.1-0.3-0.1-0.5-0.2s-0.4-0.1-0.6-0.2c-0.2-0.1-0.4-0.1-0.6-0.2c-0.2,0-0.4-0.1-0.6-0.1
	c-0.8,0-1.3,0.1-1.7,0.4c-0.4,0.3-0.6,0.6-0.6,1.1c0,0.2,0.1,0.4,0.2,0.6c0.1,0.2,0.3,0.3,0.5,0.5c0.2,0.1,0.5,0.3,0.9,0.4
	c0.3,0.1,0.8,0.3,1.2,0.5c0.4,0.2,0.8,0.3,1.2,0.5c0.4,0.2,0.7,0.3,0.9,0.5s0.5,0.4,0.6,0.6c0.1,0.2,0.2,0.5,0.2,0.8
	c0,0.4-0.1,0.8-0.3,1.1c-0.2,0.3-0.5,0.5-0.8,0.7c-0.3,0.2-0.7,0.3-1.1,0.4c-0.4,0.1-0.8,0.1-1.2,0.1c-0.6,0-1.3-0.1-1.9-0.3
	c-0.6-0.2-1.2-0.5-1.7-0.9l0.6-0.6c0.2,0.1,0.4,0.2,0.6,0.4c0.2,0.1,0.5,0.2,0.7,0.3c0.3,0.1,0.5,0.2,0.8,0.2
	c0.3,0.1,0.5,0.1,0.8,0.1c0.3,0,0.6,0,0.9-0.1c0.3,0,0.6-0.1,0.8-0.2c0.2-0.1,0.4-0.3,0.6-0.5c0.1-0.2,0.2-0.5,0.2-0.8
	c0-0.2-0.1-0.4-0.2-0.5c-0.1-0.2-0.3-0.3-0.5-0.5c-0.2-0.1-0.4-0.3-0.7-0.4c-0.3-0.1-0.6-0.3-0.9-0.4c-0.4-0.1-0.8-0.3-1.2-0.5
	c-0.4-0.2-0.8-0.3-1.1-0.5c-0.3-0.2-0.6-0.4-0.8-0.7c-0.2-0.3-0.3-0.6-0.3-0.9c0-0.4,0.1-0.8,0.3-1c0.2-0.3,0.4-0.5,0.8-0.7
	c0.3-0.2,0.6-0.3,1-0.4c0.4-0.1,0.8-0.1,1.1-0.1c0.6,0,1.2,0.1,1.7,0.2c0.5,0.1,0.9,0.3,1.3,0.5L274,179.2z"/>
<path fill="#707070" d="M50.2,143.4c0,2.4-0.3,4.1-0.9,5.4c-0.8,1.6-2,2.8-3.7,3.7c-1.7,0.9-3.6,1.3-5.8,1.3c-2.2,0-3.9-0.5-5-1.4
	c-1.1-0.9-1.7-2.1-1.7-3.6c0-0.9,0.3-1.8,0.8-2.5c0.5-0.8,1.3-1.3,2.2-1.7c1-0.4,2.6-0.8,4.9-1.1c4.1-0.6,7.2-1.2,9.2-2
	C50.2,142.1,50.2,142.8,50.2,143.4 M55.9,153.6c-0.2-1.4-0.3-4.6-0.3-9.5v-7.1c0-2.4-0.1-4-0.3-5c-0.3-1.5-0.9-2.7-1.7-3.7
	c-0.8-1-2.1-1.8-3.8-2.4c-1.7-0.6-4-1-6.7-1c-2.8,0-5.2,0.4-7.3,1.1c-2.1,0.8-3.7,1.8-4.8,3.3c-1.1,1.4-1.9,3.3-2.4,5.5
	c1.8,0.3,3.6,0.5,5.4,0.8c0.6-2.3,1.5-3.9,2.8-4.8c1.2-0.9,3.2-1.4,5.8-1.4c2.8,0,4.9,0.6,6.3,1.8c1,0.9,1.6,2.4,1.6,4.6
	c0,0.2,0,0.7,0,1.4c-2.1,0.7-5.4,1.3-9.8,1.9c-2.2,0.3-3.8,0.5-4.9,0.8c-1.5,0.4-2.8,1-3.9,1.8c-1.2,0.8-2.1,1.8-2.8,3.1
	c-0.7,1.3-1.1,2.7-1.1,4.3c0,2.7,1,4.8,2.9,6.6c1.9,1.7,4.6,2.6,8.2,2.6c2.1,0,4.2-0.3,6-1c1.9-0.7,3.8-1.9,5.8-3.5
	c0.2,1.5,0.6,2.9,1.3,4h5.4C56.5,156.3,56.1,155,55.9,153.6"/>
<path fill="#707070" d="M256.4,157.6h5.4v-16.8c0-2.3,0.3-4.4,0.9-6.3c0.4-1.3,1.1-2.3,2-3c0.9-0.7,2-1.1,3.1-1.1
	c1.3,0,2.6,0.3,3.9,1c0.6-1.7,1.3-3.3,1.9-5c-1.9-1.1-3.8-1.6-5.6-1.6c-1.3,0-2.4,0.4-3.5,1.1c-1.1,0.7-2.2,2.2-3.5,4.5v-5.1h-4.6
	V157.6z"/>
<path fill="#707070" d="M225.6,138.2c0.2-2.7,1.2-4.8,3-6.5c1.8-1.6,4-2.4,6.6-2.4c2.9,0,5.3,1,7.1,3c1.2,1.3,1.9,3.2,2.2,5.8H225.6
	z M249.7,141.4c0-5.3-1.4-9.3-4.1-12.2c-2.7-2.9-6.3-4.3-10.6-4.3c-4.5,0-8.1,1.5-10.9,4.4c-2.8,3-4.2,7.1-4.2,12.5
	c0,5.2,1.4,9.2,4.2,12.1c2.8,2.9,6.5,4.3,11.3,4.3c3.8,0,6.8-0.9,9.3-2.7c2.4-1.8,4.1-4.4,5-7.7c-1.8-0.3-3.5-0.5-5.3-0.8
	c-0.9,2.3-2,4-3.5,5.1c-1.5,1.1-3.3,1.6-5.3,1.6c-2.8,0-5.1-0.9-7-2.8c-1.9-1.8-2.9-4.5-3.1-8h24.4
	C249.7,142.2,249.7,141.7,249.7,141.4"/>
<path fill="#707070" d="M205.6,150.7c-1.6,1.9-3.6,2.9-6,2.9c-2.3,0-4.4-1-6.1-3c-1.7-2-2.6-5-2.6-9.1c0-4.2,0.8-7.2,2.4-9.2
	c1.6-1.9,3.6-2.9,6-2.9c2.5,0,4.5,1,6.2,3c1.7,2,2.5,5.2,2.5,9.5C208,145.8,207.2,148.8,205.6,150.7 M208.1,113.3v16
	c-1-1.3-2.2-2.4-3.7-3.2c-1.5-0.8-3.3-1.2-5.2-1.2c-2.7,0-5.1,0.7-7.2,2.1c-2.1,1.4-3.8,3.4-4.8,6c-1.1,2.6-1.6,5.5-1.6,8.7
	c0,3.3,0.6,6.1,1.8,8.7c1.2,2.5,2.8,4.5,5,5.9c2.2,1.4,4.5,2.1,7.1,2.1c4,0,7-1.6,9-4.9v4.3h5.1v-44.3H208.1z"/>
<path fill="#707070" d="M98.3,157.6h5.4v-16.8c0-2.3,0.3-4.4,0.9-6.3c0.4-1.3,1.1-2.3,2-3c0.9-0.7,2-1.1,3.1-1.1
	c1.3,0,2.6,0.3,3.9,1c0.6-1.7,1.3-3.3,1.9-5c-1.9-1.1-3.8-1.6-5.6-1.6c-1.3,0-2.5,0.4-3.5,1.1c-1.1,0.7-2.2,2.2-3.5,4.5v-5.1h-4.6
	V157.6z"/>
<path fill="#707070" d="M84.8,157.6h4.8v-32.2h-5.4v17.2c0,2.7-0.3,4.8-0.9,6.3c-0.6,1.4-1.6,2.6-3,3.4c-1.4,0.8-2.9,1.3-4.6,1.3
	c-1.6,0-3-0.4-4.1-1.2c-1.1-0.8-1.8-1.9-2.2-3.4c-0.2-1-0.3-2.9-0.3-5.8v-17.8h-5.4v19.9c0,2.3,0.1,4,0.3,5.1c0.3,1.6,0.9,2.9,1.7,4
	c0.8,1.1,2,2,3.6,2.7c1.6,0.7,3.4,1.1,5.3,1.1c4.2,0,7.6-1,10.1-4.5V157.6z"/>
<path fill="#707070" d="M153.3,157.6h5.4v-17.4c0-4.1,0.8-6.9,2.5-8.3c1.7-1.5,3.6-2.2,5.9-2.2c1.4,0,2.7,0.3,3.8,1
	c1.1,0.6,1.8,1.5,2.2,2.6c0.4,1.1,0.6,2.7,0.6,4.9v19.4h5.4v-19.7c0-2.5-0.1-4.3-0.3-5.3c-0.3-1.6-0.9-2.9-1.7-4
	c-0.8-1.1-2-2-3.6-2.7c-1.6-0.7-3.4-1-5.3-1c-4.4,0-7.8,1.7-10.1,5.1v-4.6h-4.8V157.6z"/>
<path fill="#707070" d="M123.1,138.2c0.2-2.7,1.2-4.8,3-6.5c1.8-1.6,4-2.4,6.6-2.4c2.9,0,5.3,1,7.1,3c1.2,1.3,1.9,3.2,2.2,5.8H123.1
	z M147.3,141.4c0-5.3-1.4-9.3-4.1-12.2c-2.7-2.9-6.3-4.3-10.6-4.3c-4.5,0-8.1,1.5-10.9,4.4c-2.8,3-4.2,7.1-4.2,12.5
	c0,5.2,1.4,9.2,4.2,12.1c2.8,2.9,6.5,4.3,11.3,4.3c3.8,0,6.8-0.9,9.3-2.7c2.4-1.8,4.1-4.4,5-7.7c-1.8-0.3-3.5-0.5-5.3-0.8
	c-0.9,2.3-2,4-3.5,5.1c-1.5,1.1-3.3,1.6-5.3,1.6c-2.8,0-5.1-0.9-7-2.8c-1.9-1.8-2.9-4.5-3.1-8h24.4
	C147.3,142.2,147.3,141.7,147.3,141.4"/>
<rect x="25" y="166" fill="#707070" width="248.6" height="3.8"/>
<rect x="73" y="166" fill="#FF7800" width="119.5" height="3.8"/>
</svg>
