<?xml version="1.0" encoding="utf-8"?>
<!-- Generator: Adobe Illustrator 18.0.0, SVG Export Plug-In . SVG Version: 6.00 Build 0)  -->
<!DOCTYPE svg PUBLIC "-//W3C//DTD SVG 1.1//EN" "http://www.w3.org/Graphics/SVG/1.1/DTD/svg11.dtd" [
	<!ENTITY ns_flows "http://ns.adobe.com/Flows/1.0/">
	<!ENTITY ns_extend "http://ns.adobe.com/Extensibility/1.0/">
	<!ENTITY ns_ai "http://ns.adobe.com/AdobeIllustrator/10.0/">
	<!ENTITY ns_graphs "http://ns.adobe.com/Graphs/1.0/">
	<!ENTITY ns_vars "http://ns.adobe.com/Variables/1.0/">
	<!ENTITY ns_imrep "http://ns.adobe.com/ImageReplacement/1.0/">
	<!ENTITY ns_sfw "http://ns.adobe.com/SaveForWeb/1.0/">
	<!ENTITY ns_custom "http://ns.adobe.com/GenericCustomNamespace/1.0/">
	<!ENTITY ns_adobe_xpath "http://ns.adobe.com/XPath/1.0/">
]>
<svg version="1.1" id="Layer_1" xmlns:x="&ns_extend;" xmlns:i="&ns_ai;" xmlns:graph="&ns_graphs;"
	 xmlns="http://www.w3.org/2000/svg" xmlns:xlink="http://www.w3.org/1999/xlink" xmlns:a="http://ns.adobe.com/AdobeSVGViewerExtensions/3.0/"
	 x="0px" y="0px" viewBox="0 0 300 300" enable-background="new 0 0 300 300" xml:space="preserve">
<metadata>
	<sfw  xmlns="&ns_sfw;">
		<slices></slices>
		<sliceSourceBounds  width="250" height="198.5" y="-249.3" x="25" bottomLeftOrigin="true"></sliceSourceBounds>
	</sfw>
</metadata>
<g>
	<g>
		<path fill="#9F9F9F" d="M177.6,194.4c10.5,0,20.4-4.1,27.9-11.6c7.4-7.4,11.6-17.4,11.6-27.9c0-10.5-4.1-20.4-11.6-27.9
			c-7.4-7.4-17.4-11.6-27.9-11.6c-10.5,0-20.4,4.1-27.9,11.6c-7.4,7.4-11.6,17.4-11.6,27.9c0,10.5,4.1,20.4,11.6,27.9
			C157.1,190.3,167,194.4,177.6,194.4z M148.3,155c0-7.8,3-15.2,8.6-20.7c5.5-5.5,12.9-8.6,20.7-8.6c7.8,0,15.2,3,20.7,8.6
			c5.5,5.5,8.6,12.9,8.6,20.7c0,16.2-13.1,29.3-29.3,29.3c-7.8,0-15.2-3-20.7-8.6S148.3,162.8,148.3,155z"/>
		<path fill="#9F9F9F" d="M124.6,148.8c2.6,4.6,4,9.8,4,15.1c0,8.2-3.2,15.9-9,21.6c-5.8,5.8-13.5,9-21.6,9H83.2H83v-0.2V52.9v-0.2
			l0.2,0c0,0,9.9,0,9.9,0c12.1,0,23.5,4.7,32.1,13.3c8.6,8.6,13.3,19.9,13.3,32.1c0,16.8-9.2,32.1-24,40
			C118.6,140.7,122.2,144.4,124.6,148.8z M117.9,122.9c6.6-6.6,10.3-15.5,10.3-24.9c0-9.4-3.7-18.2-10.3-24.9
			c-6.6-6.6-15.4-10.3-24.7-10.3v70.4C102.5,133.2,111.3,129.5,117.9,122.9z M93.2,184.3H98c11.3,0,20.5-9.2,20.5-20.5
			c0-5.5-2.1-10.6-6-14.5s-9-6-14.5-6c0,0-4,0-4.8,0V184.3z"/>
		<path fill="#9F9F9F" d="M187.4,55l-0.1,0.1l-2.3,2.3l-3.3,3.3c0,0-0.1,0.1-0.1,0.1l-0.1-0.1c-0.5-0.5-1.8-1.7-4.1-1.7
			c-1.4,0-3,0.7-4.1,1.8c-0.7,0.7-1.6,2-1.6,4c0,1.8,0.7,3,1.7,4.1c2,2,18.2,18.2,18.2,18.2l5.5-5.5l0.1-0.1l0.1,0.1l5.5,5.6
			l0.1,0.1l-0.1,0.1l-5.5,5.4l7.7,7.7l0.1,0.1l-0.1,0.1l-5.5,5.6l-0.1,0.1l-0.1-0.1l-7.7-7.7c-1.3,1.2-2.6,2.6-4.9,4.9
			c-2.6,2.6-6.4,4.3-10.2,4.7c-3.2,0.3-7.9-0.3-12.2-4.6c-3.1-3.1-4.7-6.8-4.7-11c0-4.2,1.8-8.7,4.6-11.5l3.1-3.1l1.8-1.8
			c-0.1-0.1-0.2-0.2-0.4-0.3c-1.6-1.5-5.3-5.1-5.3-11.1c0-3.5,1.4-7,3.9-9.6c2.6-2.8,6.2-4.3,10-4.3c5.1,0,8.3,2.5,9.8,4.1L187.4,55
			z M185.9,92.7l-10.9-10.8l-4.9,4.9c-1.4,1.4-2.3,3.5-2.3,5.5c0,2,0.8,3.9,2.3,5.3c3.4,3.4,8.1,2.8,10.9,0
			C183.2,95.4,185.4,93.2,185.9,92.7z"/>
	</g>
	<g>
		<path d="M25,228.8h5.4c4.2,0,7.1,1.4,7.1,5.1c0,2.8-1.6,4.1-4.1,4.8v0.1c2.7,0.2,4.7,2,4.7,4.8c0,4.3-3.6,5.4-7.7,5.4H25V228.8z
			 M27.9,246.5H30c2.6,0,4.9-0.5,4.9-3.3c0-3.1-2.7-3.5-5.2-3.5h-1.9V246.5z M27.9,237.4h1.6c2.8,0,5.2-0.3,5.2-3.2c0-2.4-2-3-3.7-3
			h-3V237.4z"/>
		<path d="M49.6,228.8h3l8.5,20.1H58l-2-5.1h-9.8l-2,5.1h-3L49.6,228.8z M51,231.5l-4,10h8L51,231.5z"/>
		<path d="M65.5,228.8h3.9l8.9,16.2h0.1v-16.2h2.9v20.1h-3.7l-9.1-16.5h-0.1v16.5h-2.9V228.8z"/>
		<path d="M103,232.4c-1.4-0.9-2.9-1.4-5.5-1.4c-4.6,0-7.7,3.4-7.7,7.9c0,4.7,3.4,7.9,7.6,7.9c2,0,2.5-0.2,3.2-0.3v-6.1h-4.2v-2.4
			h7.1v10.4c-1.1,0.4-3,0.9-6.1,0.9c-6.4,0-10.6-4.1-10.6-10.5c0-6.2,4.5-10.3,10.6-10.3c2.9,0,4.2,0.4,5.9,1L103,232.4z"/>
		<path d="M153.7,228.4c6.1,0,9.7,4.4,9.7,10.4c0,6.1-3.5,10.4-9.7,10.4c-6.1,0-9.7-4.3-9.7-10.4
			C144.1,232.9,147.6,228.4,153.7,228.4z M153.7,246.7c4.6,0,6.6-3.9,6.6-7.9c0-4.1-2.2-7.9-6.6-7.9c-4.4,0-6.6,3.8-6.6,7.9
			C147.1,242.8,149.1,246.7,153.7,246.7z"/>
		<path d="M169.1,228.8h2.9v17.6h8.4v2.5h-11.3V228.8z"/>
		<path d="M199.8,240.6c0,5.6-2.8,8.7-7.8,8.7c-5,0-7.8-3-7.8-8.7v-11.8h2.9v11.4c0,3.9,1.2,6.5,4.9,6.5s4.9-2.6,4.9-6.5v-11.4h2.9
			V240.6z"/>
		<path d="M206.8,228.8h10.7v2.5h-7.8v5.9h7.5v2.5h-7.5v9.2h-2.9V228.8z"/>
		<path d="M233.5,231.8c-1.5-0.6-2.3-0.8-3.8-0.8c-1.6,0-3.5,0.6-3.5,2.7c0,3.9,8.6,3,8.6,9.6c0,4.3-3.3,6-7.3,6
			c-1.4,0-2.8-0.4-4.1-0.8l0.3-2.7c1,0.4,2.7,1,4.2,1c1.6,0,3.9-0.9,3.9-3.3c0-4.5-8.6-3.3-8.6-9.5c0-3.6,2.8-5.5,6.4-5.5
			c1.3,0,2.9,0.2,4.3,0.7L233.5,231.8z"/>
		<path d="M241.4,228.8h11.3v2.5h-8.4v5.9h7.6v2.5h-7.6v6.6h8.4v2.5h-11.3V228.8z"/>
		<path d="M259.3,228.8h3.9l8.9,16.2h0.1v-16.2h2.9v20.1h-3.7l-9.1-16.5h-0.1v16.5h-2.9V228.8z"/>
		<path d="M132.2,248.6c0,0-2.3-2.3-2.8-2.8c-0.5,0.5-0.9,0.9-1.8,1.8c-1.8,1.8-5.4,2.7-8.1,0c-2.7-2.7-1.7-6.4,0-8.1
			c0.7-0.7,1.4-1.4,1.8-1.8c-0.4-0.4-2.1-1.7-2.1-4.2c0-2.5,2-5,5-5c2.2,0,3.4,1.3,3.6,1.5c-0.1,0.1-1.8,1.8-2,2
			c-0.2-0.2-0.7-0.6-1.5-0.6c-0.9,0-2.1,0.8-2.1,2.1c0,0.9,0.6,1.5,0.7,1.5c1,1,6.7,6.7,6.7,6.7l2-2l2,2l-2,2l2.8,2.8L132.2,248.6z
			 M123.2,239.7c0,0-0.9,0.9-1.8,1.8c-1,1-1.3,2.8,0,4c1.3,1.3,3.1,1,4,0c1-1,1.9-1.9,1.9-1.9L123.2,239.7z"/>
	</g>
</g>
</svg>
